<svg width="100" height="100" viewBox="0 0 100 100" fill="none" xmlns="http://www.w3.org/2000/svg">
<rect width="100" height="100" rx="22" fill="url(#paint0_linear_21_13)"/>
<mask id="mask0_21_13" style="mask-type:luminance" maskUnits="userSpaceOnUse" x="18" y="16" width="64" height="68">
<path d="M82 16H18V84H82V16Z" fill="white"/>
</mask>
<g mask="url(#mask0_21_13)">
<path d="M50.2412 16C50.3471 16 50.4529 16 50.562 16C52.0217 20.142 52.0217 20.142 52.5151 21.8696C52.6905 22.4511 52.9095 23.0132 53.1303 23.5799C53.4308 24.3762 53.6764 25.1892 53.9303 26C54.5551 27.9925 55.1924 29.9781 55.8889 31.9487C56.1265 32.6223 56.362 33.2966 56.5969 33.9711C56.6449 34.1083 56.6927 34.2454 56.742 34.3867C57.0548 35.2878 57.3503 36.1921 57.6359 37.1015C57.7801 37.5386 57.942 37.9654 58.1108 38.3942C58.3999 39.137 58.6041 39.885 58.7887 40.6574C58.8905 41.0802 58.8905 41.0802 59.0871 41.4675C59.2583 41.9421 59.2073 42.1327 59.0631 42.6155C59.0329 42.7198 59.0025 42.8244 58.9713 42.9319C58.8588 43.3148 58.7412 43.6959 58.622 44.0769C58.5793 44.214 58.5367 44.3513 58.4924 44.4928C58.1959 45.4296 57.8529 46.3319 57.4724 47.2402C57.2417 47.8405 57.0983 48.4499 56.9479 49.0721C56.758 49.7515 56.478 50.3907 56.206 51.0433C56.0249 51.514 55.8929 51.973 55.7751 52.4616C55.6135 53.1301 55.3991 53.7473 55.1335 54.3844C54.8073 55.1672 54.5799 55.9351 54.3809 56.7548C54.1857 57.4706 53.9145 58.1561 53.6489 58.8502C53.4081 59.4941 53.1999 60.1446 52.9937 60.7992C52.7537 61.5537 52.5055 62.3059 52.2561 63.0576C52.2079 63.2035 52.1593 63.3494 52.1095 63.4998C51.7663 64.5319 51.4132 65.5602 51.05 66.5857C50.8729 67.1057 50.7153 67.6272 50.562 68.1536C50.4031 68.1029 50.2444 68.0522 50.0807 67.9999C49.8809 67.5558 49.8809 67.5558 49.6897 66.971C49.6556 66.8677 49.6212 66.7644 49.5857 66.6579C49.3012 65.7912 49.0468 64.9163 48.7919 64.0415C48.6065 63.4386 48.3833 62.8546 48.154 62.2662C47.8044 61.3393 47.5239 60.3901 47.2292 59.4462C46.7271 57.8404 46.226 56.2414 45.6207 54.6682C45.4436 54.1922 45.2831 53.7154 45.1303 53.2318C44.8993 52.505 44.6668 51.7785 44.4317 51.053C44.3414 50.7742 44.3414 50.7742 44.2493 50.4896C44.1888 50.3026 44.1282 50.1156 44.0658 49.9231C43.9438 49.5465 43.8218 49.1699 43.6999 48.7933C43.6404 48.6097 43.5809 48.4261 43.5196 48.237C43.4044 47.8797 43.2902 47.5217 43.1772 47.1636C42.8079 45.9951 42.3969 44.8482 41.9474 43.7061C41.4285 42.3338 41.5719 41.4074 42.1009 40.0673C42.5153 38.9793 42.8815 37.8984 43.2011 36.7812C43.3337 36.3415 43.4864 35.9184 43.6547 35.4903C43.93 34.7869 44.1587 34.0769 44.3765 33.3557C44.9367 31.5034 45.5332 29.6731 46.2164 27.8589C46.502 27.0889 46.7167 26.3182 46.9084 25.5216C47.0969 24.8499 47.3759 24.2167 47.6447 23.5715C47.8809 22.9581 48.0329 22.3403 48.1873 21.7043C48.3775 21.0065 48.6444 20.3396 48.9047 19.6634C49.1927 18.8951 49.4209 18.1093 49.6476 17.3226C49.7964 16.8176 49.9348 16.4406 50.2412 16Z" fill="white"/>
<path d="M81.8395 16.1539C81.8925 16.1539 81.9453 16.1539 82 16.1539C82 33.2124 82 50.2707 82 67.8461C81.5555 67.633 81.5488 67.4201 81.3896 66.9736C81.336 66.8248 81.2827 66.676 81.2275 66.5227C81.1715 66.3629 81.1152 66.2031 81.0576 66.0384C80.9995 65.8754 80.9413 65.7122 80.8816 65.5441C80.5501 64.6083 80.2304 63.6704 79.9347 62.7236C79.6688 61.8838 79.3907 61.0477 79.1128 60.2116C79.0595 60.0499 79.0061 59.8886 78.9509 59.7222C78.644 58.7998 78.3168 57.8881 77.9677 56.9797C77.8112 56.5668 77.6704 56.1514 77.5387 55.7309C77.4845 55.5601 77.4304 55.3893 77.3747 55.2133C77.2381 54.7784 77.1045 54.3426 76.9712 53.9069C76.2851 51.6849 75.512 49.495 74.7208 47.3059C74.2813 46.088 73.8531 44.8705 73.4675 43.6355C73.384 43.374 73.2952 43.114 73.2005 42.8559C72.8496 41.8978 73.2117 41.1708 73.5896 40.2603C73.8147 39.704 73.9877 39.1526 74.1504 38.577C74.3312 37.9491 74.528 37.3502 74.792 36.7501C75.0301 36.2075 75.1941 35.6793 75.3333 35.1058C75.4955 34.4452 75.7019 33.8321 75.9648 33.202C76.2835 32.435 76.5491 31.6676 76.7869 30.8751C76.8368 30.7093 76.8368 30.7093 76.8875 30.5403C76.9544 30.3164 77.0213 30.0926 77.0883 29.8688C77.5352 28.3863 78.0365 26.9355 78.6168 25.4962C78.9144 24.7455 79.1229 23.9978 79.3101 23.2164C79.4437 22.7323 79.6208 22.2823 79.8144 21.8174C80.184 20.9296 80.4723 20.035 80.7467 19.1175C81.5504 16.4312 81.5504 16.4312 81.8395 16.1539Z" fill="white"/>
<path d="M18 16.9233C18.5208 17.4228 18.6905 17.8499 18.9154 18.4996C18.9548 18.61 18.9942 18.7204 19.0348 18.8342C19.1625 19.1936 19.2881 19.5536 19.4135 19.9137C19.5016 20.1633 19.5898 20.4129 19.678 20.6626C20.1386 21.9718 20.5799 23.2835 20.9766 24.612C21.4889 26.292 22.1074 27.9412 22.7048 29.5947C23.1335 30.7827 23.5493 31.9708 23.9282 33.1745C24.2836 34.2767 24.6743 35.3682 25.0576 36.4617C27.0012 42.0058 27.0012 42.0058 26.369 43.5248C26.166 44.0364 26.0109 44.5493 25.8596 45.077C25.6281 45.8742 25.361 46.645 25.0576 47.4191C24.8805 47.8907 24.7273 48.3664 24.5764 48.8463C24.3803 49.4693 24.1715 50.0824 23.9348 50.6925C23.5227 51.7607 23.1862 52.8497 22.8476 53.9408C22.355 55.5273 21.8665 57.0997 21.2249 58.637C20.9031 59.4355 20.6591 60.2567 20.406 61.0772C19.7796 63.1051 19.1335 65.1096 18.3208 67.0771C18.2149 67.0771 18.1091 67.0771 18 67.0771C18 50.5262 18 33.9756 18 16.9233Z" fill="white"/>
<path d="M65.9612 63.0769C66.067 63.0769 66.1729 63.0769 66.282 63.0769C66.4892 63.6918 66.6964 64.3067 66.9033 64.9215C66.9772 65.1407 67.0508 65.3596 67.1246 65.5788C67.5348 66.7968 67.9428 68.0153 68.3436 69.2361C68.7878 70.5893 69.2537 71.9321 69.7614 73.2646C69.9785 73.8431 70.163 74.4083 70.2934 75.0109C70.4628 75.7913 70.7598 76.5027 71.0742 77.2382C71.2956 77.7764 71.443 78.2584 71.5044 78.8359C71.5278 79.0169 71.5513 79.1981 71.5753 79.3846C71.6812 79.4354 71.787 79.4861 71.8961 79.5384C71.407 80.0442 70.8377 80.2937 70.1918 80.577C70.07 80.6308 69.9484 80.6845 69.8228 80.7402C69.4454 80.9055 69.067 81.0687 68.6881 81.2308C68.579 81.2776 68.4702 81.3244 68.358 81.3728C65.4988 82.5908 62.075 84 58.9036 84C59.1102 82.8301 59.4521 81.7353 59.8561 80.6154C60.3252 79.3033 60.3252 79.3033 60.7545 77.9788C60.9889 77.2165 61.2612 76.4695 61.5401 75.7212C62.0233 74.4094 62.463 73.0912 62.8761 71.7576C63.855 68.6053 63.855 68.6053 64.4876 67.1064C64.767 66.3862 64.9825 65.6499 65.1934 64.909C65.3838 64.2554 65.6222 63.6774 65.9612 63.0769Z" fill="white"/>
<path d="M34.0399 64.3077C34.1987 64.3077 34.3575 64.3077 34.5211 64.3077C34.8863 65.2204 35.2103 66.1345 35.4835 67.0768C35.715 67.874 35.9821 68.6448 36.2855 69.4189C36.5252 70.0571 36.7229 70.7067 36.9271 71.3564C37.074 71.8047 37.2359 72.2428 37.4083 72.6827C37.7254 73.4989 37.9667 74.329 38.2103 75.1675C38.3963 75.7759 38.6195 76.3643 38.8519 76.9572C39.0916 77.5957 39.2893 78.2453 39.4935 78.8947C39.6404 79.3433 39.8023 79.7813 39.9747 80.221C40.9371 82.7082 40.9371 82.7082 40.9371 83.6921C38.8657 83.645 36.9305 82.9418 34.9923 82.2979C34.8836 82.262 34.7749 82.2262 34.6629 82.1893C33.9895 81.96 33.3603 81.683 32.7249 81.3697C32.3792 81.2033 32.0268 81.0702 31.664 80.9423C30.7537 80.6028 29.9146 80.1556 29.0675 79.6922C29.5043 78.09 30.0087 76.5071 30.5111 74.923C30.5639 74.7559 30.5639 74.7559 30.6178 74.5854C30.9822 73.4343 31.3699 72.2953 31.7943 71.1634C32.2 70.0806 32.549 68.9884 32.8801 67.8826C33.0828 67.2071 33.2991 66.536 33.5186 65.8654C33.5693 65.71 33.5693 65.71 33.6211 65.5518C33.7575 65.136 33.8962 64.7212 34.0399 64.3077Z" fill="white"/>
</g>
<defs>
<linearGradient id="paint0_linear_21_13" x1="50" y1="0" x2="50" y2="100" gradientUnits="userSpaceOnUse">
<stop stop-color="#D85747"/>
<stop offset="1" stop-color="#CE4332"/>
</linearGradient>
</defs>
</svg>
