<svg width="111" height="27" viewBox="0 0 111 27" fill="none" xmlns="http://www.w3.org/2000/svg">
<mask id="mask0_3_42" style="mask-type:luminance" maskUnits="userSpaceOnUse" x="0" y="0" width="24" height="27">
<path d="M24 0H0V27H24V0Z" fill="white"/>
</mask>
<g mask="url(#mask0_3_42)">
<path d="M12.0904 0C12.1301 0 12.1698 0 12.2107 0C12.7581 1.64463 12.7581 1.64463 12.9431 2.33057C13.0089 2.56145 13.091 2.78463 13.1738 3.00967C13.2865 3.32585 13.3786 3.64863 13.4738 3.97058C13.7081 4.76174 13.9471 5.55011 14.2083 6.33256C14.2974 6.60002 14.3857 6.86778 14.4738 7.13559C14.4918 7.19005 14.5097 7.24449 14.5282 7.30059C14.6455 7.65837 14.7563 8.01746 14.8634 8.37855C14.9175 8.55207 14.9782 8.72155 15.0415 8.89182C15.1499 9.18675 15.2265 9.48375 15.2957 9.79044C15.3339 9.95832 15.3339 9.95832 15.4076 10.1121C15.4718 10.3005 15.4527 10.3762 15.3986 10.5679C15.3873 10.6093 15.3759 10.6509 15.3642 10.6936C15.322 10.8456 15.2779 10.9969 15.2332 11.1482C15.2172 11.2026 15.2012 11.2571 15.1846 11.3133C15.0734 11.6853 14.9448 12.0436 14.8021 12.4042C14.7156 12.6425 14.6618 12.8845 14.6054 13.1316C14.5342 13.4013 14.4292 13.6551 14.3272 13.9142C14.2593 14.1012 14.2098 14.2834 14.1656 14.4774C14.105 14.7428 14.0246 14.9879 13.925 15.2409C13.8027 15.5517 13.7174 15.8566 13.6428 16.182C13.5696 16.4663 13.4679 16.7384 13.3683 17.0141C13.278 17.2697 13.1999 17.528 13.1226 17.7879C13.0326 18.0875 12.9395 18.3862 12.846 18.6846C12.8279 18.7426 12.8097 18.8005 12.791 18.8602C12.6623 19.27 12.5299 19.6783 12.3937 20.0855C12.3273 20.292 12.2682 20.499 12.2107 20.7081C12.1511 20.6879 12.0916 20.6678 12.0302 20.647C11.9553 20.4707 11.9553 20.4707 11.8836 20.2385C11.8708 20.1975 11.8579 20.1564 11.8446 20.1142C11.7379 19.77 11.6425 19.4227 11.5469 19.0753C11.4774 18.8359 11.3937 18.604 11.3077 18.3704C11.1766 18.0024 11.0714 17.6255 10.9609 17.2507C10.7726 16.6131 10.5847 15.9782 10.3577 15.3536C10.2913 15.1646 10.2311 14.9752 10.1738 14.7832C10.0872 14.4946 10 14.2062 9.91187 13.9181C9.87802 13.8074 9.87802 13.8074 9.84349 13.6944C9.82077 13.6201 9.79806 13.5459 9.77465 13.4695C9.7289 13.3199 9.68316 13.1704 9.63743 13.0209C9.61512 12.948 9.59281 12.8751 9.56982 12.8C9.52662 12.6581 9.4838 12.516 9.44142 12.3738C9.30294 11.9098 9.14883 11.4544 8.98025 11.0009C8.78569 10.4561 8.83945 10.0882 9.03781 9.55612C9.19321 9.12412 9.33054 8.69493 9.4504 8.25137C9.50014 8.07679 9.55738 7.90878 9.62051 7.73881C9.72375 7.45951 9.80948 7.17761 9.89119 6.89125C10.1012 6.15576 10.3249 5.42901 10.5811 4.70869C10.6882 4.40296 10.7687 4.09693 10.8406 3.78064C10.9113 3.51393 11.0159 3.26252 11.1167 3.00634C11.2053 2.76276 11.2623 2.51747 11.3202 2.26495C11.3915 1.98786 11.4916 1.72306 11.5892 1.4546C11.6972 1.14951 11.7828 0.837512 11.8678 0.525151C11.9236 0.324646 11.9755 0.174953 12.0904 0Z" fill="white"/>
<path d="M23.9399 0.0610962C23.9598 0.0610962 23.9796 0.0610962 24.0001 0.0610962C24.0001 6.8343 24.0001 13.6075 24.0001 20.5859C23.8334 20.5013 23.8309 20.4168 23.7712 20.2395C23.7511 20.1804 23.7311 20.1213 23.7104 20.0605C23.6894 19.997 23.6683 19.9336 23.6467 19.8682C23.6249 19.8035 23.6031 19.7387 23.5807 19.6719C23.4564 19.3003 23.3365 18.9279 23.2256 18.552C23.1259 18.2186 23.0216 17.8866 22.9174 17.5546C22.8974 17.4904 22.8774 17.4263 22.8567 17.3603C22.7416 16.994 22.6189 16.632 22.488 16.2713C22.4293 16.1074 22.3765 15.9425 22.3271 15.7755C22.3068 15.7077 22.2865 15.6399 22.2656 15.57C22.2144 15.3973 22.1643 15.2243 22.1143 15.0512C21.857 14.169 21.5671 13.2995 21.2704 12.4303C21.1056 11.9467 20.945 11.4633 20.8004 10.9729C20.7691 10.8691 20.7358 10.7658 20.7003 10.6633C20.5687 10.2829 20.7045 9.99427 20.8462 9.63272C20.9306 9.41187 20.9955 9.19291 21.0565 8.96436C21.1243 8.71507 21.1981 8.47725 21.2971 8.23897C21.3864 8.02352 21.4479 7.81381 21.5001 7.58611C21.5609 7.3238 21.6383 7.08035 21.7369 6.83018C21.8564 6.52563 21.956 6.22092 22.0452 5.90626C22.0639 5.84045 22.0639 5.84045 22.0829 5.77331C22.108 5.68444 22.1331 5.59557 22.1582 5.50669C22.3258 4.91807 22.5138 4.34203 22.7314 3.77055C22.843 3.47244 22.9212 3.17556 22.9914 2.86532C23.0415 2.67311 23.1079 2.49441 23.1805 2.30982C23.3191 1.95733 23.4272 1.60212 23.5301 1.23779C23.8315 0.171205 23.8315 0.171205 23.9399 0.0610962Z" fill="white"/>
<path d="M0 0.366608C0.195305 0.564952 0.258946 0.734538 0.343278 0.9925C0.358055 1.03635 0.372831 1.08019 0.388055 1.12537C0.435946 1.26805 0.483031 1.41099 0.530073 1.55397C0.563106 1.65309 0.596162 1.75221 0.629241 1.85133C0.801975 2.37115 0.967455 2.892 1.11623 3.41947C1.30834 4.08654 1.54026 4.74139 1.76431 5.39792C1.92506 5.86963 2.081 6.34135 2.22306 6.8193C2.35636 7.25694 2.50285 7.69032 2.6466 8.12451C3.37544 10.3259 3.37544 10.3259 3.13838 10.929C3.06226 11.1321 3.00408 11.3357 2.94735 11.5453C2.86054 11.8618 2.76038 12.1679 2.6466 12.4752C2.5802 12.6625 2.52274 12.8514 2.46615 13.0419C2.39261 13.2893 2.3143 13.5327 2.22555 13.775C2.07102 14.1991 1.94481 14.6315 1.81784 15.0648C1.63312 15.6947 1.44994 16.319 1.20935 16.9294C1.08867 17.2465 0.997157 17.5725 0.902251 17.8983C0.667343 18.7035 0.425081 19.4994 0.1203 20.2806C0.0806011 20.2806 0.040902 20.2806 0 20.2806C0 13.7089 0 7.13737 0 0.366608Z" fill="white"/>
<path d="M17.9855 18.6923C18.0252 18.6923 18.0649 18.6923 18.1058 18.6923C18.1835 18.9365 18.2612 19.1806 18.3388 19.4247C18.3665 19.5118 18.3941 19.5987 18.4218 19.6857C18.5756 20.1693 18.7286 20.6531 18.8789 21.1379C19.0455 21.6752 19.2202 22.2083 19.4106 22.7374C19.492 22.9671 19.5612 23.1916 19.6101 23.4308C19.6736 23.7407 19.785 24.0232 19.9029 24.3152C19.9859 24.5289 20.0412 24.7203 20.0642 24.9496C20.073 25.0214 20.0818 25.0934 20.0908 25.1674C20.1305 25.1876 20.1702 25.2077 20.2111 25.2285C20.0277 25.4293 19.8142 25.5284 19.572 25.6409C19.5263 25.6623 19.4807 25.6836 19.4336 25.7057C19.2921 25.7713 19.1502 25.8361 19.0081 25.9005C18.9672 25.9191 18.9264 25.9377 18.8843 25.9569C17.8121 26.4405 16.5282 27 15.3389 27C15.4164 26.5355 15.5446 26.1008 15.6961 25.6561C15.872 25.1351 15.872 25.1351 16.033 24.6093C16.1209 24.3066 16.223 24.01 16.3276 23.7129C16.5088 23.192 16.6737 22.6686 16.8286 22.1391C17.1957 20.8874 17.1957 20.8874 17.4329 20.2923C17.5377 20.0063 17.6185 19.714 17.6976 19.4198C17.769 19.1603 17.8584 18.9308 17.9855 18.6923Z" fill="white"/>
<path d="M6.01492 19.181C6.07447 19.181 6.13402 19.181 6.19537 19.181C6.33231 19.5435 6.4538 19.9064 6.55627 20.2806C6.64308 20.5971 6.74325 20.9031 6.85702 21.2105C6.94689 21.4639 7.02106 21.7218 7.09762 21.9798C7.15269 22.1578 7.21343 22.3317 7.27807 22.5064C7.39698 22.8305 7.48748 23.1601 7.57882 23.493C7.64855 23.7346 7.73227 23.9682 7.81942 24.2037C7.90929 24.4571 7.98346 24.7151 8.06002 24.9729C8.11509 25.151 8.17583 25.325 8.24047 25.4995C8.60137 26.4871 8.60137 26.4871 8.60137 26.8778C7.82461 26.8591 7.09889 26.5799 6.37206 26.3242C6.33131 26.31 6.29055 26.2957 6.24856 26.2811C5.99603 26.19 5.76005 26.0801 5.52178 25.9556C5.39215 25.8896 5.26 25.8367 5.12395 25.786C4.78261 25.6512 4.46793 25.4736 4.15027 25.2896C4.31406 24.6534 4.50322 24.0249 4.69162 23.3959C4.71142 23.3296 4.71142 23.3296 4.73162 23.2619C4.86829 22.8048 5.01366 22.3526 5.17282 21.9031C5.32496 21.4732 5.45583 21.0396 5.58001 20.6005C5.65601 20.3323 5.73711 20.0658 5.81943 19.7995C5.83846 19.7379 5.83846 19.7379 5.85786 19.675C5.90902 19.5099 5.96102 19.3452 6.01492 19.181Z" fill="white"/>
</g>
<path d="M48.688 5.2H51.88V22H49.168V8.872L43.984 16.696H43.72L38.56 8.872V22H35.848V5.2H39.04L43.864 12.448L48.688 5.2ZM61.8196 8.512C66.0676 8.512 68.7556 11.8 68.4916 16.144H57.7636C57.9796 18.568 59.6836 19.912 61.8916 19.912C63.4756 19.912 64.7956 19.24 65.4196 17.944H68.2276C67.1956 20.896 64.6756 22.288 61.8676 22.288C57.8596 22.288 55.0036 19.408 55.0036 15.424C55.0036 11.44 57.8356 8.512 61.8196 8.512ZM61.8196 10.864C59.7556 10.864 58.3636 12.16 57.9076 13.936H65.5876C65.1796 12.136 63.8116 10.864 61.8196 10.864ZM78.2427 8.512C78.5787 8.512 78.8427 8.536 79.0347 8.584V11.344C78.7947 11.32 78.5787 11.296 78.2187 11.296C75.7467 11.296 73.8507 12.688 73.8507 15.952V22H71.1387V8.8H73.8507V11.416C74.6427 9.568 76.1547 8.512 78.2427 8.512ZM87.5076 22.288C83.5956 22.288 80.6676 19.336 80.6676 15.4C80.6676 11.464 83.5956 8.512 87.5316 8.512C90.6516 8.512 93.4116 10.408 94.0116 13.6H91.2036C90.6996 11.944 89.2356 11.032 87.5316 11.032C85.0836 11.032 83.4036 12.856 83.4036 15.4C83.4036 17.968 85.1316 19.768 87.5076 19.768C89.2356 19.768 90.6996 18.808 91.2036 17.176H94.0116C93.3876 20.44 90.6036 22.288 87.5076 22.288ZM102.906 8.512C106.698 8.512 109.746 11.416 109.746 15.4C109.746 19.36 106.746 22.288 102.906 22.288C99.0901 22.288 96.0661 19.336 96.0661 15.4C96.0661 11.416 99.1381 8.512 102.906 8.512ZM102.906 11.104C100.626 11.104 98.8021 12.856 98.8021 15.4C98.8021 17.944 100.602 19.696 102.906 19.696C105.21 19.696 107.01 17.944 107.01 15.4C107.01 12.856 105.186 11.104 102.906 11.104Z" fill="white"/>
</svg>
