<svg width="24" height="24" viewBox="0 0 24 24" fill="none" xmlns="http://www.w3.org/2000/svg">
<path d="M10.2681 21C10.4437 21.304 10.6961 21.5565 11.0002 21.732C11.3042 21.9075 11.6491 21.9999 12.0001 21.9999C12.3512 21.9999 12.696 21.9075 13.0001 21.732C13.3041 21.5565 13.5566 21.304 13.7321 21M13.9161 2.31399C13.0136 2.00987 12.0516 1.92495 11.1098 2.06627C10.168 2.20759 9.27329 2.57109 8.49977 3.1267C7.72625 3.68231 7.09611 4.41408 6.66144 5.26149C6.22678 6.1089 6.00009 7.04761 6.00011 7.99999C6.00011 12.499 4.58911 13.956 3.26011 15.327C3.12969 15.4703 3.04372 15.6485 3.01267 15.8398C2.98162 16.0311 3.00683 16.2273 3.08522 16.4045C3.16362 16.5817 3.29182 16.7324 3.45425 16.8381C3.61667 16.9438 3.80632 17.0001 4.00011 17H20.0001C20.1939 17.0001 20.3836 16.9438 20.546 16.8381C20.7084 16.7324 20.8366 16.5817 20.915 16.4045C20.9934 16.2273 21.0186 16.0311 20.9876 15.8398C20.9565 15.6485 20.8705 15.4703 20.7401 15.327C20.5343 15.1151 20.3391 14.8931 20.1551 14.662M21.0001 7.99999C21.0001 9.65685 19.657 11 18.0001 11C16.3433 11 15.0001 9.65685 15.0001 7.99999C15.0001 6.34314 16.3433 4.99999 18.0001 4.99999C19.657 4.99999 21.0001 6.34314 21.0001 7.99999Z" stroke="white" stroke-width="2" stroke-linecap="round" stroke-linejoin="round"/>
</svg>
